<?xml version="1.0" encoding="UTF-8"?>
<svg width="350px" height="630px" viewBox="0 0 350 630" xmlns="http://www.w3.org/2000/svg" xmlns:xlink="http://www.w3.org/1999/xlink" version="1.1">
 <!-- Generated by Pixelmator Pro 1.2.4 -->
 <path id="path" d="M0 0 L350 0 350 630 0 630 Z" fill="#ffffff" fill-opacity="1" stroke="none"/>
 <defs>
  <linearGradient id="linear-gradient" gradientUnits="userSpaceOnUse" x1="296.097" y1="146.475" x2="-68.535" y2="278.974">
   <stop offset="0" stop-color="#513db4" stop-opacity="1"/>
   <stop offset="1" stop-color="#3d28a8" stop-opacity="1"/>
  </linearGradient>
 </defs>
 <path id="path-1" d="M36.181 66.938 C25.105 61.787 5.169 65.052 0 68.512 L0 630 348.523 630 350 66.215 C350 66.215 346.758 77.972 333.755 88.469 318.987 100.39 299.789 112.312 272.468 98.801 256.962 88.469 240.273 72.689 228.165 66.496 208.966 56.677 197.095 60.36 189.768 61.346 183.861 62.141 176.825 63.839 170.57 66.496 161.217 70.47 137.046 80.643 118.143 89.545 99.24 98.447 81.962 98.272 74.578 92.343 50.949 73.368 43.217 70.209 36.181 66.938 Z" fill-opacity="0.6" fill="url(#linear-gradient)" stroke="none"/>
 <defs>
  <linearGradient id="linear-gradient-1" gradientUnits="userSpaceOnUse" x1="175" y1="72.45" x2="183.933" y2="313.121">
   <stop offset="0" stop-color="#513db4" stop-opacity="1"/>
   <stop offset="1" stop-color="#3d28a8" stop-opacity="1"/>
  </linearGradient>
 </defs>
 <path id="path-2" d="M125.263 93.14 C73.979 61.467 20.386 73.081 0 82.847 L0.737 630 350 630 350 97.099 C334.526 89.078 326.421 85.911 319.789 82.847 313.895 80.123 294 72.45 274.105 74.034 261.76 75.016 246.842 77.822 235.789 82.847 223.018 88.653 201.011 103.173 179.789 105.707 158.568 108.241 131.649 97.627 125.263 93.14 Z" fill-opacity="0.6" fill="url(#linear-gradient-1)" stroke="none"/>
 <defs>
  <linearGradient id="linear-gradient-2" gradientUnits="userSpaceOnUse" x1="175" y1="62.875" x2="185.916" y2="247.778">
   <stop offset="0" stop-color="#4d3bb3" stop-opacity="1"/>
   <stop offset="1" stop-color="#3d28a8" stop-opacity="1"/>
  </linearGradient>
 </defs>
 <path id="path-3" d="M70.897 97.63 C50.856 102.87 5.416 96.861 0 93.19 L0 630 350 630 350 72.462 C320.515 108.642 276.942 111.001 262.911 111.001 246.655 111.001 212.692 88.192 212.692 88.192 212.692 88.192 193.638 73.406 179.459 67.743 161.734 60.664 148.441 61.451 148.441 61.451 139.579 61.451 124.809 65.281 113.731 72.462 96.745 83.473 87.883 93.19 70.897 97.63 Z" fill-opacity="0.6" fill="url(#linear-gradient-2)" stroke="none"/>
 <defs>
  <linearGradient id="linear-gradient-3" gradientUnits="userSpaceOnUse" x1="213.397" y1="210.77" x2="284.83" y2="589.94">
   <stop offset="0" stop-color="#513db4" stop-opacity="0"/>
   <stop offset="1" stop-color="#bb6ed3" stop-opacity="1"/>
  </linearGradient>
 </defs>
 <path id="path-4" d="M0 186.637 L170.57 186.637 350 186.637 350 630 0 630 0 186.637 Z" fill-opacity="1" fill="url(#linear-gradient-3)" stroke="none"/>
</svg>
